<svg xmlns="http://www.w3.org/2000/svg" xmlns:xlink="http://www.w3.org/1999/xlink" viewBox="0 0 500 500" class="animated" id="freepik_stories-designer-girl">
  <style>
    @keyframes zoomOut {
        from {
            opacity: 0;
            transform: scale(1.2, 1.2)
        }
        to {
            opacity: 1;
            transform: scale(1, 1)
        }
    }
    @keyframes slideLeft {
        from {
            opacity: 0;
            transform: translateX(11px)
        }
        to {
            opacity: 1;
            transform: translateX(0)
        }
    }
    @keyframes fadeIn {
        from {
            opacity: 0
        }
        to {
            opacity: 1
        }
    }
    @keyframes lightSpeedLeft {
        from {
            opacity: 0;
            transform: translateX(11px) skewX(0deg)
        }
        to {
            opacity: 1;
            transform: translateX(0) skewX(0deg)
        }
    }
    @keyframes zoomIn {
        from {
            transform: scale(0, 0)
        }
        to {
            transform: scale(1, 1)
        }
    }
    @keyframes slideUp {
        from {
            opacity: 0;
            transform: translateY(11px)
        }
        to {
            opacity: 1;
            transform: translateY(0)
        }
    }
  </style>
  <defs>
    <clipPath id="freepik--clip-path--in--21937">
      <path d="M232.662,378.38,174.47,208.46,128.17,318.7Z" style="fill:#FFFFFF;opacity:0"></path>
    </clipPath>
    <clipPath id="freepik--clip-path--in--99690">
      <path d="M232.662,378.38,174.47,208.46,128.17,318.7Z" style="fill:#FFFFFF;opacity:0"></path>
    </clipPath>
    <clipPath id="freepik--clip-path--in--72087">
      <path d="M260.72,389.32,202.53,219.38,156.23,329.62Z" style="fill:#FFFFFF;opacity:0"></path>
    </clipPath>
    <clipPath id="freepik--clip-path--in--68901">
      <path d="M232.66,378.38,174.47,208.46,128.17,318.7Z" style="fill:#FFFFFF;opacity:0"></path>
    </clipPath>
  </defs>
  <g id="freepik--background-simple--inject-2" class="animated" style="animation: 1s 1s infinite backwards zoomOut;">
    <path d="M219.69,150.36c5.86-28.77,15.22-56.45,37.82-77.73C283.38,47.62,317.91,45,347.9,58.66S407.77,102.88,416,144.06c8.12,41.18-27.09,82.25-62.67,105.49S275.83,286.35,235.37,295.81s-82.44-14.72-104.55,19.26S69.17,377.6,47.06,359.26,4.21,306-47.42,326.8c-5.44,2.21-11.13-3.74-8.6-8.83C-10.77,218,22.76,247.78,33.67,174.18c14.68-5.92,101.92-194.82,122.31-231.36C148.2-71.4,119,212.84,113.34,257.11,126.22,207,210.24,191.13,219.69,150.36Z" style="fill:rgb(78, 97, 204);opacity:0.12"></path>
  </g>
  <g id="freepik--Shadows--inject-2" class="animated" style="animation: 1s 1s infinite backwards slideLeft;">
    <path d="M305.15,405.83,159.69,432.35A17.33,17.33,0,0,1,142,418.82a52.22,52.22,0,0,1,26.23-37.37L313.69,354.93a17.33,17.33,0,0,1,23.63,7l.16.29a44.29,44.29,0,0,1-19.43,59.48A17.37,17.37,0,0,1,305.15,405.83Z" style="fill:#26323E;opacity:0.3"></path>
    <path d="M220.55,431.49s104.36,15.23,142.86-2.65,21-51.79,21-51.79l-32.73-20.56-41.9,46.67-39.77,7.17Z" style="fill:#26323E;opacity:0.28"></path>
    <path d="M116.06,440.8h0a9.83,9.83,0,0,1-9.83-9.83v-9.47a9.83,9.83,0,0,1,9.83-9.83h0a9.83,9.83,0,0,1,9.83,9.83v9.47A9.83,9.83,0,0,1,116.06,440.8Z" style="fill:#26323E;opacity:0.11"></path>
    <path d="M296.23,440.8h0a9.83,9.83,0,0,1-9.83-9.83v-9.47a9.83,9.83,0,0,1,9.83-9.83h0a9.83,9.83,0,0,1,9.83,9.83v9.47A9.83,9.83,0,0,1,296.23,440.8Z" style="fill:#26323E;opacity:0.28"></path>
  </g>
  <g id="freepik--Post-it--inject-2" class="animated" style="animation: 1s 1s infinite backwards fadeIn;">
    <g id="freepik--Post--inject-2">
      <path d="M413.54,225.76,361.88,243.2a4.31,4.31,0,0,1-2.73-8.18l51.66-17.44a4.31,4.31,0,1,1,2.73,8.18Z" style="fill:#26323E;opacity:0.1"></path>
      <path d="M412.75,223.34a2.94,2.94,0,0,0-3.77-1.72l-51.66,17.44a2.94,2.94,0,1,0,2.05,5.49l51.66-17.44A2.94,2.94,0,0,0,412.75,223.34Z" style="fill:#FFFFFF"></path>
      <path d="M369.6,233.82l42.68-14.4-6.34-29.67h-37.53Z" style="fill:#57E6E6"></path>
      <path d="M412.28,219.42l-42.68,14.4-9.44-28.13,42.68-14.4,9.44,28.13ZM369.58,233.84l11.46,0,6.54-29.66h-37.53Z" style="fill:#28333F"></path>
      <path d="M381.05,233.8l6.55-29.66H350.08l11.46,0Z" style="fill:#FFFFFF;opacity:0.2"></path>
      <path d="M364.23,235.44a1.78,1.78,0,0,1-2.16-1.27,1.79,1.79,0,0,1,1.26-2.16,1.8,1.8,0,0,1,2.17,1.27,1.77,1.77,0,0,1-1.27,2.16Z" style="fill:#26323E"></path>
      <path d="M364.35,235.07a1.36,1.36,0,0,1-1.66-1,1.37,1.37,0,0,1,1-1.65,1.36,1.36,0,0,1,1.66,1,1.37,1.37,0,0,1-1,1.66Z" style="fill:#57E6E6"></path>
      <path d="M384,222.7a1.32,1.32,0,0,1-1.61-.94,1.33,1.33,0,0,1,.93-1.61,1.32,1.32,0,0,1,1.62.93,1.33,1.33,0,0,1-.94,1.62Z" style="fill:#0B7BE5"></path>
      <path d="M391,209.79a1.32,1.32,0,0,1-1.61-.94,1.32,1.32,0,0,1,.94-1.61,1.32,1.32,0,0,1,1.61.94,1.32,1.32,0,0,1-.94,1.61Z" style="fill:#0B7BE5"></path>
      <path d="M398.09,196.8a1.32,1.32,0,0,1-1.61-.94,1.32,1.32,0,0,1,.94-1.61,1.32,1.32,0,0,1,1.61.94,1.32,1.32,0,0,1-.94,1.61Z" style="fill:#0B7BE5"></path>
      <path d="M403.59,191.66a1.32,1.32,0,0,1-1.62-.94,1.32,1.32,0,0,1,.94-1.61,1.33,1.33,0,0,1,1.61.94,1.32,1.32,0,0,1-.94,1.61Z" style="fill:#0B7BE5"></path>
      <path d="M408,188.71a1.31,1.31,0,0,1-1.61-.93,1.32,1.32,0,0,1,.94-1.61,1.32,1.32,0,0,1,1.6.93,1.33,1.33,0,0,1-.93,1.61Z" style="fill:#0B7BE5"></path>
      <path d="M347.44,258.26a1.32,1.32,0,0,1-1.61-.94,1.32,1.32,0,0,1,.94-1.61,1.33,1.33,0,0,1,1.6.94,1.32,1.32,0,0,1-.93,1.61Z" style="fill:#0B7BE5"></path>
      <path d="M340.72,260.1a1.33,1.33,0,0,1-1.61-.93,1.33,1.33,0,0,1,.94-1.62,1.38,1.38,0,0,1,1.61.94,1.33,1.33,0,0,1-.94,1.61Z" style="fill:#0B7BE5"></path>
      <path d="M361.6,246.26a1.32,1.32,0,0,1-1.61-.94,1.32,1.32,0,0,1,.94-1.61,1.32,1.32,0,0,1,1.61.94,1.32,1.32,0,0,1-.94,1.61Z" style="fill:#0B7BE5"></path>
      <path d="M370.82,237.17a1.32,1.32,0,0,1-1.61-.94,1.33,1.33,0,0,1,.94-1.61,1.33,1.33,0,0,1,1.61.94,1.32,1.32,0,0,1-.94,1.61Z" style="fill:#0B7BE5"></path>
      <path d="M380.66,228.55a1.32,1.32,0,0,1-1.61-.94,1.32,1.32,0,0,1,.94-1.61,1.32,1.32,0,0,1,1.61.94,1.33,1.33,0,0,1-.94,1.61Z" style="fill:#0B7BE5"></path>
      <path d="M359.77,257a1.32,1.32,0,0,1-1.61-.94,1.32,1.32,0,0,1,.94-1.6,1.33,1.33,0,0,1,1.61.93,1.33,1.33,0,0,1-.94,1.61Z" style="fill:#0B7BE5"></path>
    </g>
  </g>
  <g id="freepik--Plant--inject-2" class="animated" style="animation: 1s 1s infinite backwards lightSpeedLeft;">
    <g id="freepik--Pot--inject-2">
      <path d="M65.16,421.19c-1.11,7.89-1.31,12.33,9.69,15.5,13.52,3.9,34.23,8.24,51.62,3.47,17.07-4.62,7.85-19.68,7.85-19.68s22.06-2.23,16.89-15.12S65.16,421.19,65.16,421.19Z" style="fill:#0B7BE5"></path>
      <path d="M66.61,416.63a38.48,38.48,0,0,0,14.48,15.45c13.58,1.94,28.08,2.76,42.45-.1a28.15,28.15,0,0,0,15.63-11.92C100.14,429.4,78,426.53,66.61,416.63Z" style="fill:rgb(255, 255, 255);opacity:0.2"></path>
      <path d="M61.09,421.19c-1.11,7.89-1.31,12.33,9.69,15.5,13.52,3.9,34.23,8.24,51.62,3.47,17.07-4.62,7.85-19.68,7.85-19.68s22.06-2.23,16.89-15.12S61.09,421.19,61.09,421.19Z" style="fill:#A9D6FF"></path>
      <path d="M62.54,416.63a38.48,38.48,0,0,0,14.48,15.45c13.58,1.94,28.08,2.76,42.45-.1a28.15,28.15,0,0,0,15.63-11.92C96.07,429.4,73.93,426.53,62.54,416.63Z" style="fill:rgb(255, 255, 255);opacity:0.6"></path>
    </g>
    <g id="freepik--Plant--inject-2">
      <path d="M105.28,307.56c-13.59.56-20.78-10.14-21.32-23-1.43-12.93,4.56-24.61,17.82-28.9-.86,6.51-3.45,11.45-2.43,18.35,1.15,2.13,2.41,4.18,3.59,6.28.48,4.19,2.67,8.12,6.57,10.36C111.25,297.75,114.66,301.71,105.28,307.56Z" style="fill:#26323E"></path>
      <path d="M99.4,341.68c-12.86-4.85-15.19-18.18-9.62-29.83-6.28-12.19-9.63-25.63-11.08-39.44,7.06-33.93,11.06-63.94,20.2-53.67-1.18,15.41-7.43,29.53-6.51,46.94,1.16,12.78,4.12,24.2,13.75,31,3.12.12,5.55,1.33,7.92,3.25C108.68,322.19,111.21,346.2,99.4,341.68Z" style="fill:#57E6E6"></path>
      <path d="M109.88,340.76c-12.57,1.27-22.91-8.56-13.63-23.79-3.62-11.06-3.32-22.21-3.29-33.46,7.17-29.19,5.24-54.46,3.8-45.13,1.57,14.08-3,26.34-3,42.36,0,12.79,3.51,23.7,11.6,30.66-1.91,11.13,1.17,24.12,10.26,25.88C113.21,338.28,112.2,340.77,109.88,340.76Z" style="fill:#0B7BE5"></path>
      <path d="M112.87,276.28c-7.64-4.46-13.26-11.21-16.13-20-4.33-17.6-.74-36.37,9.27-51.79,5.23-8,9.7-10.67,10.05-2.07,3.26,13.11,2.33,27.12,8.25,39.74C128.1,259.22,121.46,277.8,112.87,276.28Z" style="fill:#26323E"></path>
      <path d="M106.35,309.11c-12.77-6.73-8.88-20.81-.43-29.36-4.93-15.21-6.42-30.36-8.8-46.29,8.92-20.79,13.79-39.9,13.77-30.43.21,13.8-5.29,26.43-4.86,41.18,0,11.94,3.06,22.36,11.36,29.91.1,10.34.6,20.36,3.72,28.35C119.43,311.48,111.66,314.15,106.35,309.11Z" style="fill:#57E6E6"></path>
      <path d="M97.94,339.82c-.61,10.17-6.83,18.27-17,23.72-9.54,5.1-19.06,7.46-28,6.61,8.82-9.66,17.24-19.26,23.21-30.56,5.32-15.06,6.75-32.37-2.78-46.26-1.26-4.6-1-9.5-.61-14.36-.46,9.13-7.33,14.66-10,19.54A87.88,87.88,0,0,1,97.94,339.82ZM134.69,360.89c-4.78,1.51-11.76-2.05-17.88-7.71.73-1.17,1.42-2.38,2.15-3.54C121.83,351.52,126.75,357.51,134.69,360.89Z" style="fill:#0B7BE5"></path>
    </g>
  </g>
  <g id="freepik--Cup--inject-2" class="animated" style="animation: 1s 1s infinite backwards zoomIn;">
    <g id="freepik--cup--inject-2">
      <path d="M381.55,370.06c13.35,3.12,20.43,12.92,17.06,21.18-3.37,8.26-17.17,12.55-30.4,9.48s-21.42-12.43-18.09-20.69C353.63,371.8,367.45,366.82,381.55,370.06Z" style="fill:#57E6E6"></path>
      <path d="M359.92,386.36c2.65,4.64,10.08,7.61,18.43,8.13-2.25,4.4-6.92,8.16-12.92,8.76-8.26,1-16.38-2.63-19.13-7.61C344.13,392.89,352.9,385.78,359.92,386.36Z" style="fill:rgb(255, 255, 255);opacity:0.5"></path>
      <path d="M349.57,401.67c-11.75-2.6-19.18-14.28-14.68-25.26,6.92-7.93,18.18-10.69,29.17-7.56A23.74,23.74,0,0,1,381.55,370.06c13.35,3.12,20.43,12.92,17.06,21.18-1.6,3.93-6.26,7-12.25,8.82Z" style="fill:#0B7BE5"></path>
      <path d="M398.62,391.85c1.49-3.65.6-8.81-5.28-13.2-5.28-3.89-13.87-7.23-23.59-7.64,5.64,1.27,9.06,10.49,11.79,12.91-5.62-1.31-17.38-5.11-21.73-2.63,3.3-2.57,1.22-6.18-1.67-8.22-7.39-.15-14.3,1.77-19.22,6.4-3.58,4.73-7.58,9.92-10.29,15.27-3.1,6.38,3.31,13.79,5.34,15.92s-1.23-13.45-.88-18.89c1.57,2.43,5.72,8.8,8.72,8.79-4.46,2.41-1.44,9.48-1.44,9.48,4.64,5.21,14.94,6.78,23.69,7.57l1.28,0c15.63-.42,27.72-6.83,31.52-13.78C398.61,392.15,398.62,391.85,398.62,391.85Z" style="fill:#26323E"></path>
    </g>
    <g id="freepik--bubble--inject-2">
      <path d="M388.79,382.42a5.6,5.6,0,1,1-5.6-5.6A5.61,5.61,0,0,1,388.79,382.42Z" style="fill:#57E6E6"></path>
      <path d="M379.86,388.82a4.44,4.44,0,1,1-4.44-4.44A4.44,4.44,0,0,1,379.86,388.82Z" style="fill:rgb(255, 255, 255);opacity:0.5"></path>
    </g>
  </g>
  <g id="freepik--Cat--inject-2" class="animated" style="animation: 1s 1s infinite backwards slideUp;">
    <g id="freepik--cat-background--inject-2">
      <path d="M383.3,326.54c.96-1.19-4.23-4.63-6.08-6a13.74,13.74,0,0,0-16.37.62c-1.68,1.35-3.1,3.17-4.3,5.06-1.31,1.84-4.22,2.47-5.91,3.84-.46,1.17-5.06,2.81-4.44,10.65.4,5,.89,6.08,1.72,8.4,2.29,6.38.68,12.88,0,17.94a6.39,6.39,0,0,0,0,.92c.17,2.06,1.62,3.47,1.79,5.18a4.38,4.38,0,0,0,.65-5c.2,1.44.28,2.15.28,2.15s-.83-1.93-.76-3.69,4.94,2.44,13.64,4,14.58,4.39,22,4.52c6.31-.25,12.76-1.22,15.66-6.05,4.23-7-.4-18.49-4.09-24.93A117.06,117.06,0,0,0,383.3,326.54Z" style="fill:#0B7BE5"></path>
      <path d="M376.52,312.36c1-1.17-3.1-5.21-4.73-6.49a13.44,13.44,0,0,0-11.68-1.47c-1.77.79-3.36,2.1-4.8,3.51a25.78,25.78,0,0,0-7.1,8.72c1-.73,3.83-3,7.2-3.41,4.14-.49,8.35.66,11.89.52" style="fill:#26323E"></path>
      <path d="M360.7,313.73a8.72,8.72,0,0,0-1.48,6,14,14,0,0,0,1.15,3c-1.16-2.34-1.34-5-1-7.53Z" style="fill:#26323E"></path>
      <path d="M401.83,369.68c.08-1.07.13-2.15.16-3.22Z" style="fill:#26323E"></path>
      <path d="M401.87,366.73c0,1.07-.05,2.15-.2,3.2" style="fill:none;stroke:#26323E;stroke-linecap:round;stroke-linejoin:round"></path>
    </g>
    <g id="freepik--cat--inject-2">
      <path d="M407.52,300.7a22.46,22.46,0,0,0-18.44,2.49c-.39,1.66-1.06,4.44-2.4,6.57-.43,5.14-4.54,9.77,3.24,14.91l5.28,37.76a3.05,3.05,0,0,0,3.48,2.5,5.7,5.7,0,0,0,5.06-4.12c.78-3.74.44-7.31,1.19-10.93a3.52,3.52,0,0,1,1.93-2.63,4,4,0,0,1,3.44-.24l1.66.75a4,4,0,0,0,4.71-.87,25.19,25.19,0,0,0,1.83-2.25c1.05-6.3,2.64-12.79,1.4-20.39C414.66,304.42,407.52,300.7,407.52,300.7Z" style="fill:#FF8B8B"></path>
      <path d="M400.13,329.28c8,1.53,15.44-1.4,17.51-5.38,2.41-4.65-2.42-2.18-2.42-2.18s-10.2-1.55-16.12.94a11.6,11.6,0,0,0-3.11,2.08c-.88-6.39-4.76-9.09-8-7.73,3.57,9.28,6.09,13.83,7.09,12.73a2,2,0,0,0-1.37-4.39l.55.31a2.08,2.08,0,0,1,.91,1.4C408.51,334.82,409.55,330.5,400.13,329.28Z" style="fill:#26323E"></path>
      <path d="M387.5,315.19c-6.34,3.35-6.13,11.12,1.82,12.77,8,1.65,12.66-1.79,12.4-6.07S393.84,311.84,387.5,315.19Z" style="fill:#FFC975"></path>
      <path d="M399,316.26c2.31,3,3.23,7.07.65,10.8" style="fill:none;stroke:#26323E;stroke-linecap:round;stroke-linejoin:round;stroke-width:2px"></path>
      <path d="M391.9,317.72c1.18-.43,2.34-.49,3.13-.12.55-2.71-1.91-5.32-4.4-4.3l-.07.13A4.12,4.12,0,0,1,391.9,317.72Z" style="fill:#26323E"></path>
      <path d="M389.69,307.19c-4.93,1.37-8.31,5-4.88,9.21C372.15,322,377.32,303.22,389.69,307.19Z" style="fill:#FF8B8B"></path>
      <path d="M389.8,307.56c-3.47.7-6,3-3.58,5.69C373.89,318.91,377,303.78,389.8,307.56Z" style="fill:#26323E"></path>
      <path d="M387.84,304.6a4.45,4.45,0,0,0-3.24,4.44c.34,3.21,2.55,5,4.39,4.54,1.93-.43,2.75-3.09,2.24-5.54A4.14,4.14,0,0,0,387.84,304.6Z" style="fill:#26323E"></path>
      <path d="M386.49,308.86s6.78,1.77,5.4,6.36c2.2-2.92,2.1-5.87.31-7.32a6.27,6.27,0,0,0-7.12.48,3.65,3.65,0,0,0-2.34,4.09,5.88,5.88,0,0,1,3.45-3.42C386.77,308.84,386.49,308.86,386.49,308.86Z" style="fill:#26323E"></path>
      <path d="M387,344.43c3.11,7.28,6.57,14.48,8,21.94,1.92,9.7-2.53,20-8.53,26.73" style="fill:none;stroke:#26323E;stroke-linecap:round;stroke-linejoin:round;stroke-width:2px"></path>
      <path d="M387,344.43c3.11,7.28,6.57,14.48,8,21.94,1.92,9.7-2.53,20-8.53,26.73" style="fill:#FF8B8B"></path>
      <path d="M387.2,348.07c1.8,4.87,3.52,9.46,4.4,13.51a38.59,38.59,0,0,1,1.15,10.84c0,.11,0,.22,0,.33a11.27,11.27,0,0,1-6.42,9.06,13.84,13.84,0,0,0,9.91-9.41c2.46-6.57-2-21.44-6.59-25.21Z" style="fill:#26323E;opacity:0.55"></path>
      <path d="M386,366.22l0,.12c.18,3.6.74,7.15,1.56,10.61" style="fill:none;stroke:#26323E;stroke-linecap:round;stroke-linejoin:round;stroke-width:2px"></path>
      <path d="M387,366.22l-.19.44c-.11,4.35-.61,8.66-1.57,12.85" style="fill:none;stroke:#26323E;stroke-linecap:round;stroke-linejoin:round;stroke-width:2px"></path>
      <path d="M391.62,391.94l.06-.28c-2.9-6.74-2.88-14.43-2.24-22.05.56-6.59,1.8-13.07.62-19.78-1.18-6.74-3.9-13.36-6.67-19.52" style="fill:none;stroke:#26323E;stroke-linecap:round;stroke-linejoin:round;stroke-width:2px"></path>
      <path d="M392.55,342.81l4.37,10.62a3.07,3.07,0,0,1,0,2.29l-2.42,5.86a1.18,1.18,0,0,1-2.14-.2l-3.55-8.56Z" style="fill:#0B7BE5"></path>
      <path d="M406.27,312.87a11.24,11.24,0,0,1-3.19,4.23Z" style="fill:#26323E"></path>
      <path d="M395.1,307.57c.4-5.1.09-8.86-2.25-9.77-4-1.57-6.89,5.53-3.08,11.05a7.41,7.41,0,0,1-2.16.23C384.37,321.71,400.8,319.92,395.1,307.57Z" style="fill:rgb(38, 50, 56);opacity:0.94"></path>
    </g>
  </g>
  <g id="freepik--Character--inject-2" class="animated" style="animation: 1s 1s infinite backwards fadeIn;">
    <g id="freepik--character--inject-2">
      <g id="freepik--chair-and-pillow--inject-2">
        <g id="freepik--chair--inject-2">
          <path d="M359.95,218.11,160.9,207.35c-6.09-.38-11.36,2.69-14.19,7.64L132.9,239.52c-1.06,1.86-.1,4.32,1.93,4.79l209.7,48.47A6.64,6.64,0,0,0,352.1,290L374.86,231.5A6.86,6.86,0,0,0,359.95,218.11Z" style="fill:#0B7BE5"></path>
          <path d="M375.89,196.84,170.28,182.55c-6.09-.38-11.36,2.69-14.19,7.65l-13.81,24.53a5.83,5.83,0,0,0,1.93,7.85l201.7,88.07A7.61,7.61,0,0,0,356,305.93l24.62-61.62A7.87,7.87,0,0,0,375.89,196.84Z" style="fill:#52A1EC"></path>
          <path d="M342,226.7l-62.85-13.64A30.84,30.84,0,0,1,258.9,184a30.7,30.7,0,0,1,41.44-15.18l67.45,20.35,3.41-5.58a7.66,7.66,0,0,0-5.56-11.43l-84.3-14.75a30.71,30.71,0,0,0-22.69,4.77,30.88,30.88,0,0,0-10.68,10.68A30.76,30.76,0,0,1,254.7,190.5L137.35,180.32a7.66,7.66,0,0,0-8,6.69L123,242.53a7.23,7.23,0,0,0,6.32,8.47l229.78,28.61a7.24,7.24,0,0,0,8-6.58l3.91-49.08A7.61,7.61,0,0,0,342,226.7Z" style="fill:#26323E"></path>
          <path d="M140.94,252.89l6.65-.09V250.8l-8.54-1.5-8.63,2.06-4.68-.58a7.23,7.23,0,0,0-6.32-8.47H119.1l-4.2,52.8a7.81,7.81,0,0,0,7.54,8.08l74.62,6.64a16.8,16.8,0,0,1,13.15,6.43l0,0A16.8,16.8,0,0,0,223.36,317l66.91-7.12a9.86,9.86,0,0,1,9.54,4.68l.54,1.73a9.86,9.86,0,0,1-7.77,12.61l-1.51.29a13.48,13.48,0,0,0-9.54,7.25l-8.56,15.71" style="fill:none;stroke:#26323E;stroke-linecap:round;stroke-linejoin:round;stroke-width:2px"></path>
        </g>
        <g id="freepik--pillow--inject-2">
          <path d="M291.22,302.62c-2.7.42-9.76.14-13.32-9.33l11.94-1l.39,3.66a3.44,3.44,0,0,0,2.41,3.1C294,299.93,297.17,301.28,291.22,302.62Z" style="fill:#FFE5B9"></path>
          <path d="M287.92,293.87c2.36,7.3,9.1,8.45,13,7.63.24,1.3.42,2.55-.48,3.8s-2.61,2.1-4.68,2.71-4.58.6-6.8.55-3.42-.43-5.64-.69-3-.72-3.74-1.72l-2.03-5.5Z" style="fill:#26323E"></path>
        </g>
      </g>
      <g id="freepik--Legs--inject-2">
        <g id="freepik--Left-Leg--inject-2">
          <path d="M233.17,393.23l-2,1.6v-12.5l2,1.6Z" style="fill:#26323E"></path>
          <path d="M231.62,392.19l-3.18.37v-3.9l3.18.38Z" style="fill:#C7A79A"></path>
        </g>
        <g id="freepik--Right-Leg--inject-2">
          <path d="M149.53,404.36c27.2,4.53,47.08,1.88,55.13-10.72,6.13-8.34,13.17-19.55,8.9-31.47l-2.85-12.88-8.46,1.58-18.12-9.37-2.17,3.36.87,7.48" style="fill:#C7A79A"></path>
          <path d="M213.86,393.64l-2.2.35v-12.4l2.2.35Z" style="fill:#26323E"></path>
          <path d="M212.58,392.8l-3.1.36v-3.86l3.1.36Z" style="fill:#C7A79A"></path>
          <path d="M150.65,393.34l-2.05.9v-12.42l2.05.9Z" style="fill:#26323E"></path>
          <path d="M149.52,392.83l-2.87,1.1v-3.81l2.87,1.1Z" style="fill:#C7A79A"></path>
          <path d="M151.09,330.94c-1.67,9-1.85,18.35-2.78,27.54-.94,9.55,6.66,13.91,11.89,19.05l6.7-.33,11-17.11c7.53-3,13.08-11.23,10.55-21.89-.41-1.77-.49-3.61-.49-5.45Z" style="fill:#C7A79A"></path>
          <g style="clip-path:url(#freepik--clip-path--in--72087)">
            <path d="M151.09,330.94c-1.67,9-1.85,18.35-2.78,27.54-.94,9.55,6.66,13.91,11.89,19.05l6.7-.33,11-17.11c7.53-3,13.08-11.23,10.55-21.89-.41-1.77-.49-3.61-.49-5.45Z" style="fill:rgb(255, 255, 255);opacity:0.3"></path>
          </g>
          <path d="M156.3,349.44l-8,21.25c-3.44,9.15.12,13.73,5.43,16.54a21.65,21.65,0,0,0,29-10.37,22.06,22.06,0,0,0,1.17-12.63" style="fill:#AF8A80"></path>
          <path d="M154.33,353.86l-8.91,16.69c-3.43,6.44-1.92,15.18,4.31,20.32h1.05l11.85-17.11Z" style="fill:#26323E"></path>
          <path d="M151.09,330.94c-1.67,9-1.85,18.35-2.78,27.54-.94,9.55,6.66,13.91,11.89,19.05l6.7-.33,9.69-13.31c-3.62-11.91-5.67-15.16-9.18-22.31a24.47,24.47,0,0,1-10.53-6.17l-2-1.49Z" style="fill:#26323E"></path>
          <path d="M163.61,357.16c2.25,8.42,7.62,14.57,12.16,20.37a11.05,11.05,0,0,1-1.83,1.1l-3-3.8c-4.33-6.38-8.08-12.58-9.63-20.37-1.22-6.11-1.16-12.33-1.2-18.51C160.28,342.76,161.39,350.11,163.61,357.16Z" style="fill:#F199B9"></path>
          <path d="M150.94,336.53c1.07-2.18,2.18-8.48,2.41-12.17,1-4.14,4.68-7.31,9.14-8.66,4.31-1.31,8.56-1.27,12.15.57,4.67,1.5,7.55,5.06,8.41,8.12,1.53,5.41-4.58,13.69-10.48,13.68-4.84,0-7.43-2.64-10.48-3.4-1.62.29-6.12.66-6.12.66Z" style="fill:#26323E"></path>
          <path d="M180.1,335.48c6.1-3.91,7.4-11.51,9.11-19.78,1.93-9.31.16-16.43-7.71-20.71-4.78-2.6-10.3-4.25-15.74-3.43-4.72.71-9.37,1.22-11.72,4.41-1.62,2.19-2.42,4.85-3.27,7.41l1.12,12.14c.75,6.63,4.15,10.69,10.64,10.27.68-2.55.91-3.11,1.89-3.6-4.64,9.12-2.37,14.3,3.24,14.09,4.15,2.52,9,4.98,12.4,7.4" style="fill:#F5CDC5"></path>
          <path d="M182.86,342.37a4.05,4.05,0,0,0-1,.29Z" style="fill:#26323E"></path>
          <path d="M185.58,336.62c3.53.13,6.74.45,6.77,3.17a4.92,4.92,0,0,0,3.49,4.83,7.22,7.22,0,0,0,2.58.16c8.05-4.31,10.46-14.9,3.5-20.53,1.66-4.84-1-12.1-6.22-13.22-6.93-1.48-12.3.16-15.05,6.41-2.47,5.61-3.17,11.05-2.46,16.87-2.95-1.48-1.14-10.08-2.85-14.16-1.24-2.98-5.78-2.91-6.6.96L165.3,318.1c-1.92,8.62,3.31,11.62,8.64,12.44,2.17,2.14,5,3.58,7.89,4.06,2.51,3.98,8.13-.89,5.62-4.64,0,4.69.97,5.9,1.77,6.31Z" style="fill:#C7A79A"></path>
          <path d="M175,300.55c6.47-1.86,10.74-4.16,12.72-11.12-8.12,3.25-11.45,4-14.65,6.16-4.1,2.75-4.75,5.83-5.8,8.39A13.29,13.29,0,0,1,175,300.55Z" style="fill:#78002A"></path>
          <path d="M157.79,362.17c3.19,4.77,0,3.6,3.63,7.28" style="fill:none;stroke:#26323E;stroke-linecap:round;stroke-linejoin:round"></path>
          <path d="M151.58,364.17c3.6,4.13,5.06,10.72,8.64,13.18-.8-.25,1.35.82,1.19,1.6" style="fill:none;stroke:#26323E;stroke-linecap:round;stroke-linejoin:round"></path>
        </g>
      </g>
      <g id="freepik--base--inject-2">
        <path d="M171.94,105.47l-8.72,71.28-20.18,3.08c-10.46.5-17.45,7.73-16.34,18.13,12.4,1.32,27.8,3,34.2,4.91l10.6,64.54,102-13.34a7.08,7.08,0,0,0,6.26-8.11l-7.11-96.06-94.19-44.15Z" style="fill:#0B7BE5"></path>
        <path d="M128.13,189.19c-1,1.08-2.11,2.1-3.42,3.29-2.07,1.88-5.75,4-8.58,5.44a28,28,0,0,1-8.78,2.68c-6.98.55-12.65-2.12-13.5-6.94-.8-4.49,2.49-9.08,7.79-12.38l3.71-2.33c1.45-.9,3.14-2.09,4.39-2.3.42-.07.77.37.72.8.53,4.44,2.88,8.14,6.83,10.93.63.45,1.23.94,1.84,1.47Z" style="fill:#26323E"></path>
        <path d="M171.94,105.47l-8.72,71.28-20.18,3.08c-10.46.5-17.45,7.73-16.34,18.13,12.4,1.32,27.8,3,34.2,4.91l10.6,64.54,102-13.34a7.08,7.08,0,0,0,6.26-8.11l-7.11-96.06-94.19-44.15Z" style="fill:rgb(255, 255, 255);opacity:0.2"></path>
        <path d="M129.05,195.45l5.63,84.19,94.32-20.76a7.11,7.11,0,0,0,5.08-8.59L224,177.68l-83.85-31.7Z" style="fill:#52A1EC"></path>
        <path d="M134.68,279.64l-7.65,46.3,104.27-9.3" style="fill:none;stroke:#26323E;stroke-linecap:round;stroke-linejoin:round"></path>
        <path d="M129.05,195.45l5.63,84.19,94.32-20.76a7.11,7.11,0,0,0,5.08-8.59L224,177.68l-83.85-31.7Z" style="fill:rgb(255, 255, 255);opacity:0.13"></path>
        <path d="M130,192.72h94.58l1.36,15.73-10.65,22.56-96.7,21.28Z" style="fill:#A9D6FF"></path>
        <path d="M130,192.72h94.58l1.36,15.73-10.65,22.56-96.7,21.28Z" style="fill:rgb(255, 255, 255);opacity:0.3"></path>
        <path d="M208.57,176.63c8.42-41.52,4.5-60.94-12.29-73.68l.89-3.76a6.71,6.71,0,0,0-7.43-7.73L51.9,28.36a6,6,0,0,0-6,5.64L39.86,89.44a30.62,30.62,0,0,0,4.74,19.17c15.53,22.7,44.12-1.18,52.21,16.92,7.43,15.11,21.62,35.57,25.71,55.43,1.45,7.57,4.92,11.61,10.71,10.1Z" style="fill:#26323E;opacity:0.98"></path>
        <path d="M208.57,176.63c8.42-41.52,4.5-60.94-12.29-73.68l.89-3.76a6.71,6.71,0,0,0-7.43-7.73L51.9,28.36a6,6,0,0,0-6,5.64l-6.06,55.44a30.62,30.62,0,0,0,4.74,19.17c15.53,22.7,44.12-1.18,52.21,16.92,7.43,15.11,21.62,35.57,25.71,55.43,1.45,7.57,4.92,11.61,10.71,10.1Z" style="fill:rgb(255, 255, 255);opacity:0.15"></path>
        <path d="M95.32,127.14c-1.48-20.05,4.76-38.13,13.65-46.36" style="fill:none;stroke:#26323E;stroke-linecap:round;stroke-linejoin:round"></path>
        <path d="M132.72,128.36c-3.44-17.18-1.72-37.94,3.51-43.13" style="fill:none;stroke:#26323E;stroke-linecap:round;stroke-linejoin:round"></path>
        <path d="M96.86,307.6l35.26-7.15,49.73,99.34c3.9,7.78,1.22,17-5.41,20.22l-1.61.78a10.53,10.53,0,0,1-8.15,0" style="fill:#26323E"></path>
        <path d="M174.71,295.54l-33.18,7.78,17.52,97.74c5.74-2.22,18.28-14.76,28.67-17.38l-13.01-88.14Z" style="fill:#0B7BE5"></path>
        <path d="M96.86,307.6l35.26-7.15,49.73,99.34c3.9,7.78,1.22,17-5.41,20.22l-1.61.78a10.53,10.53,0,0,1-8.15,0" style="fill:rgb(255, 255, 255);opacity:0.29"></path>
      </g>
      <g id="freepik--left-arm--inject-2">
        <path d="M111.83,202.83c-2.38,3.93-8.1,12.51-13.29,16.12a29.91,29.91,0,0,1-28.22,3.88.63.63,0,0,1-.3-.9c2.2-3.86.35-12.26-4.07-18.4-3.18-4.54-2.84-10-.88-12.78l7.21-15.66,13.85-6.46,2.46-14.18c-3.34-.21-5.52-.51-6.76-1.06-5.6-2.48-15.54-9.06-16.36-10.44l8.34-21.78,24.7,9.35,11.73-15.4,14.65,26.93s8.11,10.71,5.05,25.49C119.05,193.18,113.84,199.68,111.83,202.83Z" style="fill:#C7A79A"></path>
        <path d="M53.92,214.12c-4.07-11.1.78-28.05,2.26-28.48,3.08-.89,5.1.73,9.25,1.43,3.19-7.05,8.78-13.93,13.12-19.94-1.23-1.31-2.46-1.54-2.46-6.41,0-3.58.11-5.66.33-9a3.1,3.1,0,0,1,3.95-2.61l4.79,1.42c2.17-3.31,3.6-7.16,5.52-10.63-2.5-2-4.35-3.43-5.74-4.43-2.33-1.68-4.62-2.4-4.62-2.4l19.15-14.79,15.58,34,9-11-2.41,14.18c-6.44,3.58-12.72,6.66-18.56,8.92,3.95,1.88,8.05,7.72,9.88,10.06,1.94,2.73,3.03,5.86,3.66,8.78-9.55,6.47-12.48,21.18-17.28,21.29C71.55,229.4,56.95,222.51,53.92,214.12Z" style="fill:#26323E"></path>
        <path d="M103.73,220.33a5.52,5.52,0,0,1-2.89-4.13,7.67,7.67,0,0,0-.59-2.34" style="fill:none;stroke:#26323E;stroke-linecap:round;stroke-linejoin:round;stroke-width:2px"></path>
        <path d="M94.84,194.82c2.55-3.38,6.56-8.16,7.55-11.55,1.19-4.08,2.39-6.74,4.16-8.42,2.41-2.27,6,4.76,6.19,8.5" style="fill:none;stroke:#26323E;stroke-linecap:round;stroke-linejoin:round;stroke-width:2px"></path>
        <path d="M101.89,218.13c-.34,1.23-1.08,2.9-.17,4.22.48.69,1.5.68,2.17.22a2.86,2.86,0,0,0,.9-1.17c1.72-2.7,4.78-3.69,7.89-4.56-3.92,3.35-1.67,10.36,1.08,13.52-3.69-1.15-6.21-3.72-8.18-6.6-.47,2.42-.42,5.08-1.46,7.35-.61,1.32-1.88,2.22-3.24,1.87a4.79,4.79,0,0,1-3.29-2.83c-2.4-3.35-2.95-7.06-3.5-10.12C96.4,214.51,99.48,214.5,101.89,218.13Z" style="fill:#0B7BE5"></path>
        <path d="M103.68,215.11c-1.43-3,.38-8.6,1.5-11.32.63-3.8,4.22-6,7.6-5.73,3.21.26,5.6,2.88,6.22,6.17.29,1.59.19,3.09,1.69,4.5l6.38-1.13c6.59-1.63,7.73,7.22,6.87,8.52l-3.53,5.78-6.17,2.69-1.47,7.72-5.8.43a3.15,3.15,0,0,1-2.9-1.76l-6.81-3.93-2.31-3.63Z" style="fill:#FFFFFF"></path>
        <path d="M104.76,215.61c-1.43-3,.38-8.6,1.5-11.32.63-3.8,4.22-4.63,7.6-4.36,3.21.26,5.6,1.51,6.22,4.8.29,1.59.19,3.09,1.69,4.5l6.38-1.13c6.59-1.63,7.73,7.22,6.87,8.52l-3.53,5.78-6.17,2.69-1.47,7.72-5.8.43a3.15,3.15,0,0,1-2.9-1.76l-6.81-3.93-2.31-3.63Z" style="fill:#57E6E6"></path>
      </g>
      <g id="freepik--right-arm--inject-2">
        <path d="M240.83,205.77c6.36,7.27,8.84,13.84,13.06,18.79,2.8,3.25,1.14,8.07-.76,12.83,1.77,1.85.91,2.75,0,4.37-1.45,2.44-2.76,6.24-2.76,6.24s-12,4.64-13.75-3.25c-4.25-17.85-15.19-28.74-15.19-28.74l63.5-7.31-9.18-17.46Z" style="fill:#C7A79A"></path>
        <path d="M282.54,194.32c-1.68-5.68-5.83-14.86-13.75-13.87-2.37.29-3.33,2.62-4.66,4.55-2.82,4.12-5.84,8-10.57,10.26-.79-1.54-1-3.18-1.9-4.64Z" style="fill:#26323E"></path>
        <path d="M241.7,207.14c5.86,3.14,12.6,5.57,15.52,7.24,3.74,2.13,6.17-6.2,9.83-8.69,2.87-1.96,5.38-2.31,7.88-4.14,2.05-1.5,4.17-3.78,5.94-6.11" style="fill:none;stroke:#26323E;stroke-linecap:round;stroke-linejoin:round;stroke-width:2px"></path>
        <path d="M282.15,205.63c-.79-3.8-.46-9.15-4.42-11.7-3.3-2.12-6.72-.75-9.83.34-2.47.87-4.54-1.07-7.06-1.08-4.34-.01-6.91,11.6-8.44,14.9-1.19-2.68-2.06-5.59-4.88-6.57" style="fill:#26323E"></path>
        <path d="M282.15,205.63c-.79-3.8-.46-9.15-4.42-11.7-3.3-2.12-6.72-.75-9.83.34-2.47.87-4.54-1.07-7.06-1.08-4.34-.01-6.91,11.6-8.44,14.9-1.19-2.68-2.06-5.59-4.88-6.57" style="fill:rgb(255, 255, 255);opacity:0.55"></path>
        <path d="M244.8,207.16c-5.18,1.64-8.44,6.36-11.54,10.47" style="fill:none;stroke:#26323E;stroke-linecap:round;stroke-linejoin:round;stroke-width:2px"></path>
        <path d="M252.25,206.73h6.89l17.14-.74-1.49,15.14-6.78,3.56-8.7,1.47-6.65,2.98-4.84-8.39Z" style="fill:#FFFFFF"></path>
        <path d="M274.42,211.64l9.05,6.39-.8,3.2-8.88-1.86Z" style="fill:#0B7BE5"></path>
        <path d="M277.14,228.67c-6.65,1.1-13.09-.65-20-1.18a10.13,10.13,0,0,1,7.06,3.55c2.11,2.87,4.83,5,7.52,6.93,3.34,2.39,7.44,3.14,11.21,3.74,5.45.88,8.55-4.07,9.43-9.46a9.84,9.84,0,0,0,3.48-3c1.75-2.15-.74-3.94-3.62-5.14Z" style="fill:#57E6E6"></path>
        <path d="M243.94,214.65c.54,3.42,2.39,16.12,5.72,19.21" style="fill:none;stroke:#26323E;stroke-linecap:round;stroke-linejoin:round;stroke-width:2px"></path>
        <path d="M240.83,205.77c6.36,7.27,8.84,13.84,13.06,18.79,2.8,3.25,1.14,8.07-.76,12.83,1.77,1.85.91,2.75,0,4.37-1.45,2.44-2.76,6.24-2.76,6.24s-12,4.64-13.75-3.25c-4.25-17.85-15.19-28.74-15.19-28.74Z" style="fill:rgb(255, 255, 255);opacity:0.2"></path>
        <path d="M240.83,205.77c6.36,7.27,8.84,13.84,13.06,18.79,2.8,3.25,1.14,8.07-.76,12.83,1.77,1.85.91,2.75,0,4.37-1.45,2.44-2.76,6.24-2.76,6.24s-12,4.64-13.75-3.25c-4.25-17.85-15.19-28.74-15.19-28.74Z" style="fill:#26323E;opacity:0.05"></path>
      </g>
      <g id="freepik--Torso--inject-2">
        <path d="M221.52,132.26c8.11,20.75,8.79,42.45,10.09,59.47,1.19,15.92-7.92,21.1-15.24,22.51-.23,21.27.63,47.94,4.84,62.15,2.68,9-7.64,17.72-18.71,20.06-10,3.44-21.8,1.24-32.14-3.78-8.44-4.1-14.55-11.34-18.82-17.94-3.62-5.61-5-12.16-5.78-16.18l-.63-49.56a16.58,16.58,0,0,1-8.13-3.53L139.56,197.1c2.69-5.89.62-16.91-1.34-20.87.08-13.69,6.25-37.73,23.12-50.42C177.24,114.06,208.66,104.4,221.52,132.26Z" style="fill:#C7A79A"></path>
        <path d="M221.52,132.26c8.11,20.75,8.79,42.45,10.09,59.47,1.19,15.92-7.92,21.1-15.24,22.51-.23,21.27.63,47.94,4.84,62.15,2.68,9-7.64,17.72-18.71,20.06-10,3.44-21.8,1.24-32.14-3.78-8.44-4.1-14.55-11.34-18.82-17.94-3.62-5.61-5-12.16-5.78-16.18l-.63-49.6c.55-3.35-.32-6.86-2.62-9.55a16.58,16.58,0,0,1-8.13-3.53L139.56,197.1c2.69-5.89.62-16.91-1.34-20.87.08-13.69,6.25-37.73,23.12-50.42C177.24,114.06,208.66,104.4,221.52,132.26Z" style="fill:#D6B9AC"></path>
        <path d="M168.19,199.4c-3.44,6-1.63,13.23,1.82,17.83a11.81,11.81,0,0,0,7.66,4.86" style="fill:none;stroke:#26323E;stroke-linecap:round;stroke-linejoin:round"></path>
        <path d="M168.19,199.4c-3.44,6-1.63,13.23,1.82,17.83" style="fill:none;stroke:#78002A;stroke-linecap:round;stroke-linejoin:round"></path>
        <path d="M201.78,193.35c-3.55-3.31-5.31-8.43-4.82-13.3a11.18,11.18,0,0,1,.79-3.22" style="fill:none;stroke:#78002A;stroke-linecap:round;stroke-linejoin:round"></path>
        <path d="M212.79,202.44c-3.4-14.77,6.19-25.76,3.3-38-2.39-10.11-8.88-17.8-15.92-24.85" style="fill:none;stroke:#26323E;stroke-linecap:round;stroke-linejoin:round;stroke-width:3px"></path>
        <path d="M221.52,132.26c8.11,20.75,8.79,42.45,10.09,59.47,1.19,15.92-7.92,21.1-15.24,22.51-.23,21.27.63,47.94,4.84,62.15,2.68,9-7.64,17.72-18.71,20.06-10,3.44-21.8,1.24-32.14-3.78-8.44-4.1-14.55-11.34-18.82-17.94-3.62-5.61-5-12.16-5.78-16.18l-.63-49.56a16.58,16.58,0,0,1-8.13-3.53L139.56,197.1c2.69-5.89.62-16.91-1.34-20.87.08-13.69,6.25-37.73,23.12-50.42C177.24,114.06,208.66,104.4,221.52,132.26Z" style="fill:#F5CDC5"></path>
        <path d="M221.52,132.26c8.11,20.75,8.79,42.45,10.09,59.47,1.19,15.92-7.92,21.1-15.24,22.51-.23,21.27.63,47.94,4.84,62.15,2.68,9-7.64,17.72-18.71,20.06-10,3.44-21.8,1.24-32.14-3.78-8.44-4.1-14.55-11.34-18.82-17.94-3.62-5.61-5-12.16-5.78-16.18l-.63-49.6c.55-3.35-.32-6.86-2.62-9.55a16.58,16.58,0,0,1-8.13-3.53L139.56,197.1c2.69-5.89.62-16.91-1.34-20.87.08-13.69,6.25-37.73,23.12-50.42C177.24,114.06,208.66,104.4,221.52,132.26Z" style="fill:rgb(255, 255, 255);opacity:0.08"></path>
        <path d="M224.35,221.54c-1.14,4.9-9.34,8.54-18.71,8.72s-16.15-2.92-16.42-7.63c-.11-4.54,2.79-7.74,8.09-7.5,1.22.06,2.33-.05,2.33-.05-.15-3.13,1.46-15.4,7.28-15.13,4,.18,7.72,2.52,8.1,6.64a2.62,2.62,0,0,0,5.06.88A5.27,5.27,0,0,0,224.35,221.54Z" style="fill:#0B7BE5"></path>
        <path d="M224.35,221.54c-1.14,4.9-9.34,8.54-18.71,8.72s-16.15-2.92-16.42-7.63c-.11-4.54,2.79-7.74,8.09-7.5,1.22.06,2.33-.05,2.33-.05-.15-3.13,1.46-15.4,7.28-15.13,4,.18,7.72,2.52,8.1,6.64a2.62,2.62,0,0,0,5.06.88A5.27,5.27,0,0,0,224.35,221.54Z" style="fill:rgb(255, 255, 255);opacity:0.2"></path>
        <path d="M201.44,222.9c.28,7.13,3.35,12.68,6.83,16.05,2.88-8.36,10.24-10.26,13-8.91,4.29,2.1.3,9.6-8.45,18-.86.83-1.7,1.74-2.53,2.7" style="fill:none;stroke:#26323E;stroke-linecap:round;stroke-linejoin:round"></path>
      </g>
      <g id="freepik--head--inject-2">
        <g id="freepik--hair--inject-2">
          <path d="M138.28,165.34c-1.24,18.4-6.26,38.74-13.91,48.88l.35,10.17 9.66,4.78,12.47-8.25c10.42-4.34,22.56-19.66,25.49-34.55 2.14-10.83.85-26-2.46-34.6-13.81-5.88-26.59,3.29-31.6,13.57Z" style="fill:#26323E"></path>
          <path d="M138.28,165.34c-1.24,18.4-6.26,38.74-13.91,48.88l.35,10.17 9.66,4.78,12.47-8.25c10.42-4.34,22.56-19.66,25.49-34.55 2.14-10.83.85-26-2.46-34.6-13.81-5.88-26.59,3.29-31.6,13.57Z" style="fill:#3A4552"></path>
          <path d="M150.37,77.87C131.05,94.67,123.5,125.9,125.31,151.6c1.57,13.95,5.08,33.8,10.42,43.23 3,4.26,11.39,7,20.67,5.18 7-1.37,12.91-5.13,15.82-10.7 2.9-1.07,5.91-2.39,9.35-3.52 1.05-10.93,6.88-24.23,13.48-34.82-1.12-1.94-4.14-2.44-4.14-2.44s6.06-16.57,7.24-27.69c-13.81-2.95-22.42-20.71-22.42-20.71s10.17-8.57,12.46-16.77c-8.39-4.37-17.31-10.61-20.1-17.69C163.93,70.88,160.09,68.86,150.37,77.87Z" style="fill:#26323E"></path>
          <path d="M150.37,77.87C131.05,94.67,123.5,125.9,125.31,151.6c1.57,13.95,5.08,33.8,10.42,43.23 3,4.26,11.39,7,20.67,5.18 7-1.37,12.91-5.13,15.82-10.7 2.9-1.07,5.91-2.39,9.35-3.52 1.05-10.93,6.88-24.23,13.48-34.82-1.12-1.94-4.14-2.44-4.14-2.44s6.06-16.57,7.24-27.69c-13.81-2.95-22.42-20.71-22.42-20.71s10.17-8.57,12.46-16.77c-8.39-4.37-17.31-10.61-20.1-17.69C163.93,70.88,160.09,68.86,150.37,77.87Z" style="fill:#3A4552"></path>
          <path d="M150.37,77.87C131.05,94.67,123.5,125.9,125.31,151.6c1.57,13.95,5.08,33.8,10.42,43.23 3,4.26,11.39,7,20.67,5.18 7-1.37,12.91-5.13,15.82-10.7 2.9-1.07,5.91-2.39,9.35-3.52 1.05-10.93,6.88-24.23,13.48-34.82-1.12-1.94-4.14-2.44-4.14-2.44s6.06-16.57,7.24-27.69c-13.81-2.95-22.42-20.71-22.42-20.71s10.17-8.57,12.46-16.77c-8.39-4.37-17.31-10.61-20.1-17.69C163.93,70.88,160.09,68.86,150.37,77.87Z" style="fill:rgb(255, 255, 255);opacity:0.05"></path>
          <path d="M125.4,152.54c16.36-19.72,59.16-45.67,84.29-38.4,5.51,1.59,5.35,17.83-4.72,28.71-8.12,8.77-18.51,15.06-25.7,16.13-.33,7.46-1.25,14-2.74,20.5-6.15,26.68-24.94,48.8-48.3,52.34-5.16-2.99-10.14-6.14-13.79-10-10.67-11.31,6.19-59.17,10.96-69.28Z" style="fill:#0B7BE5"></path>
          <path d="M125.4,152.54c16.36-19.72,59.16-45.67,84.29-38.4,5.51,1.59,5.35,17.83-4.72,28.71-8.12,8.77-18.51,15.06-25.7,16.13-.33,7.46-1.25,14-2.74,20.5-6.15,26.68-24.94,48.8-48.3,52.34-5.16-2.99-10.14-6.14-13.79-10-10.67-11.31,6.19-59.17,10.96-69.28Z" style="fill:#52A1EC"></path>
          <path d="M125.4,152.54c16.36-19.72,59.16-45.67,84.29-38.4,5.51,1.59,5.35,17.83-4.72,28.71-8.12,8.77-18.51,15.06-25.7,16.13-.33,7.46-1.25,14-2.74,20.5-6.15,26.68-24.94,48.8-48.3,52.34-5.16-2.99-10.14-6.14-13.79-10-10.67-11.31,6.19-59.17,10.96-69.28Z" style="fill:rgb(255, 255, 255);opacity:0.2"></path>
          <path d="M201.28,115.27c6.73,0,12.13,5.77,17.77,8,4.58,1.82,13,2.8,14.77,2.75" style="fill:none;stroke:#26323E;stroke-linecap:round;stroke-linejoin:round;stroke-width:2.5px"></path>
          <path d="M161.18,130.77s.06-3.44,1.59-5.7" style="fill:none;stroke:#26323E;stroke-linecap:round;stroke-linejoin:round;stroke-width:2.5px"></path>
          <path d="M155.88,128.51s.74-2.65,2.17-4.07" style="fill:none;stroke:#26323E;stroke-linecap:round;stroke-linejoin:round;stroke-width:2.5px"></path>
          <path d="M170.23,130a1.4,1.4,0,0,1-2.66-.49c-.25-4.19-2.47-6.37-6.45-6.2-2.81.12-4.25,1.11-6.15,2.71l2.92,6.42s1.62.69,2.28-.48" style="fill:none;stroke:#26323E;stroke-linecap:round;stroke-linejoin:round;stroke-width:2.5px"></path>
        </g>
        <g id="freepik--Clark-lavigne-MV--inject-2">
          <path d="M143.8,193c-9.59,12.29-7.75,31.82-3.78,45.06a38.86,38.86,0,0,0,25.52,25.43,36.13,36.13,0,0,0,41.89-19.5,31.16,31.16,0,0,0-8.43-35.6c-4.5-3.75-9.3-7.78-13-12.29C177.05,183.5,159.65,173.6,143.8,193Z" style="fill:#F5CDC5"></path>
          <path d="M269.34,153.51c-8.07-16.79-21-27.71-36.6-31.22-10.49-2.36-19.49-1.84-28.31-4.7-12.34-4-24-11.79-34.41-21.64a48.83,48.83,0,0,1-14.24-38.6,2.06,2.06,0,0,0-3.45-1.84c-17.63,16.95-23.47,44.53-17.66,66.4 3.55,13.11,10.4,24.61,19.9,33.36,5,4.61,6.81,7.49,7.36,13.45.25,2.7,1.21,5.18,1.72,7.4,3.08,14.07,9,26.24,2.81,34.7-2.4,3.27-4.22,6.6-3,9.82 1.7,4.47,9.92,6.27,17.84,3.51 11.19-3.89,17.29-16.03,20.38-26.6a49.82,49.82,0,0,0,34.65,8.49c1.05-8.79,2.2-18.92,5.08-27.51a84,84,0,0,1,4.07-10.01c.31.09.94-.8.94-.8l19.55,10-3.72,26.21c13.68,13.14,16.03,27.59,20.7,32.3 1.5-5.54,2.63-11.68.16-18.72-1.88-5.39-5.63-10.88-11.36-14.1 2.58-5.93.61-11.76-1.15-16.86-1.03-11-7.18-26.06-60.83,6.6Z" style="fill:#26323E"></path>
        </g>
      </g>
      <g id="freepik--wrist--inject-2">
        <path d="M238.8,205.77c-.5-7.6-4.52-9.55,6.49-8.27 4.31.5,8,2.38,11,4.83-3.67-5.12-8.18-8.57-14.07-9.95-7.59-1.78-13.67,4.75-15.06,10.68-.63,2.71-2.06,8.49,1.04,10.2Z" style="fill:#0B7BE5"></path>
      </g>
    </g>
  </g>
</svg>